HIERARCHY
ROOT hip
{
	OFFSET 0.000000 0.000000 0.000000 
	CHANNELS 6 Xposition Yposition Zposition Xrotation Zrotation Yrotation
	JOINT abdomen
	{
		OFFSET 0.000000 3.402643 0.000000 
		CHANNELS 3 Xrotation Zrotation Yrotation
		JOINT chest
		{
			OFFSET 0.000000 8.438565 -0.680529 
			CHANNELS 3 Xrotation Zrotation Yrotation
			JOINT neck
			{
				OFFSET 0.000000 10.207942 -0.272212 
				CHANNELS 3 Xrotation Zrotation Yrotation
				JOINT head
				{
					OFFSET 0.000000 3.130431 0.000000 
					CHANNELS 3 Xrotation Zrotation Yrotation
					End Site
					{
						OFFSET 0.000000 3.130435 0.000000 
					}
				}
			}
			JOINT lCollar
			{
				OFFSET 3.470700 6.669187 -0.816635 
				CHANNELS 3 Yrotation Zrotation Xrotation
				JOINT lShldr
				{
					OFFSET 3.198488 0.000000 0.000000 
					CHANNELS 3 Zrotation Yrotation Xrotation
					JOINT lForeArm
					{
						OFFSET 10.139888 0.000000 0.000000 
						CHANNELS 3 Yrotation Zrotation Xrotation
						JOINT lHand
						{
							OFFSET 8.370511 0.000000 0.000000 
							CHANNELS 3 Zrotation Yrotation Xrotation
							End Site
							{
								OFFSET 4.083176 0.000000 0.000000 
							}
						}
					}
				}
			}
			JOINT rCollar
			{
				OFFSET -3.470700 6.669187 -0.816635 
				CHANNELS 3 Yrotation Zrotation Xrotation
				JOINT rShldr
				{
					OFFSET -3.198488 0.000000 0.000000 
					CHANNELS 3 Zrotation Yrotation Xrotation
					JOINT rForeArm
					{
						OFFSET -10.139888 0.000000 0.000000 
						CHANNELS 3 Yrotation Zrotation Xrotation
						JOINT rHand
						{
							OFFSET -8.370511 0.000000 0.000000 
							CHANNELS 3 Zrotation Yrotation Xrotation
							End Site
							{
								OFFSET -4.083176 0.000000 0.000000 
							}
						}
					}
				}
			}
		}
	}
	JOINT lThigh
	{
		OFFSET 5.308129 -1.633274 1.361059 
		CHANNELS 3 Xrotation Zrotation Yrotation
		JOINT lShin
		{
			OFFSET -2.041588 -20.007561 0.000000 
			CHANNELS 3 Xrotation Zrotation Yrotation
			JOINT lFoot
			{
				OFFSET 0.000000 -19.190928 -1.224953 
				CHANNELS 3 Xrotation Yrotation Zrotation
				End Site
				{
					OFFSET 0.000000 -2.449906 4.627600 
				}
			}
		}
	}
	JOINT rThigh
	{
		OFFSET -5.308129 -1.633274 1.361059 
		CHANNELS 3 Xrotation Zrotation Yrotation
		JOINT rShin
		{
			OFFSET 2.041588 -20.007561 0.000000 
			CHANNELS 3 Xrotation Zrotation Yrotation
			JOINT rFoot
			{
				OFFSET 0.000000 -19.190928 -1.224953 
				CHANNELS 3 Xrotation Yrotation Zrotation
				End Site
				{
					OFFSET 0.000000 -2.449906 4.627600 
				}
			}
		}
	}
}
MOTION
Frames: 11
Frame Time: 0.016667
-0.476688 38.255840 26.277641 9.648450 0.105902 -3.233930 -10.166000 0.947911 0.503379 22.041201 0.966472 0.025208 -22.732599 7.626620 -11.966500 -2.018320 8.996010 -5.281510 2.000000 -2.000000 0.000000 -61.413799 -22.442301 167.248993 82.920403 -0.231699 0.135721 0.072518 -0.074061 -164.412003 -2.000000 2.000000 0.000000 -110.685997 161.406998 -3.879080 -85.371597 0.225881 0.136279 -0.054435 0.003419 -138.141998 -43.723759 -2.722777 21.839977 44.613262 1.443852 3.494581 -10.944631 18.453194 1.164627 -19.305954 5.313358 -2.244692 59.762611 -1.116019 -3.962413 -17.169109 19.558258 6.528599 
-0.464686 38.268208 26.547812 9.794930 0.067363 -3.269610 -10.175700 0.899829 0.512036 22.002100 0.937202 0.023805 -22.849199 7.581480 -11.814900 -2.067180 8.956460 -5.206930 2.000000 -2.000000 0.000000 -61.091999 -22.832800 167.337997 82.910698 -0.231723 0.135718 0.072480 -0.073988 -164.382996 -2.000000 2.000000 0.000000 -110.714996 161.397003 -3.791170 -85.547401 0.225463 0.136312 -0.054436 0.003473 -138.162003 -43.674004 -2.751462 21.635868 44.828720 1.432637 3.493073 -11.345953 18.616604 1.328380 -19.204777 5.270469 -2.247898 59.752750 -1.125204 -3.967966 -16.431477 19.840925 6.379427 
-0.458266 38.279945 26.818771 9.931640 0.048096 -3.253290 -10.185400 0.867545 0.507954 21.972799 0.917689 0.022840 -22.937300 7.556820 -11.664800 -2.096540 8.936610 -5.131300 2.000000 -2.000000 0.000000 -60.809200 -23.223200 167.427002 82.910698 -0.231723 0.135718 0.072430 -0.073891 -164.343994 -2.000000 2.000000 0.000000 -110.754997 161.417007 -3.722860 -85.703598 0.225091 0.136340 -0.054435 0.003419 -138.141998 -43.583633 -2.784508 21.457916 45.056103 1.409433 3.535481 -11.770959 18.711063 1.486371 -19.096348 5.222445 -2.220536 59.761684 -1.130234 -3.951039 -15.685716 20.065180 6.206708 
-0.457512 38.289745 27.087711 10.068400 0.028846 -3.256590 -10.195000 0.835938 0.533042 21.943501 0.927463 0.022609 -23.007000 7.577660 -11.549200 -2.106290 8.926760 -5.073200 2.000000 -2.000000 0.000000 -60.536301 -23.642900 167.524994 82.900902 -0.231746 0.135715 0.072417 -0.073867 -164.334000 -2.000000 2.000000 0.000000 -110.793999 161.445999 -3.674100 -85.811096 0.224836 0.136359 -0.054433 0.003337 -138.113007 -43.526711 -2.785085 21.415236 45.272461 1.391401 3.550610 -12.189857 18.741846 1.631918 -19.013367 5.197344 -2.178714 59.761131 -1.147663 -3.950816 -14.907282 20.234968 6.014819 
-0.459752 38.298630 27.356647 10.214800 0.019222 -3.238720 -10.204600 0.794721 0.559871 21.924000 0.927470 0.032058 -23.084299 7.596010 -11.464600 -2.126050 8.926470 -5.027400 2.000000 -2.000000 0.000000 -60.283001 -24.082100 167.613998 82.881401 -0.231792 0.135710 0.072467 -0.073964 -164.373001 -2.000000 2.000000 0.000000 -110.833000 161.485001 -3.654660 -85.889198 0.224650 0.136373 -0.054433 0.003309 -138.102997 -43.438877 -2.755528 21.407013 45.498486 1.375853 3.566879 -12.594856 18.678549 1.746388 -18.943632 5.162102 -2.128344 59.801128 -1.128354 -3.958153 -14.110211 20.348484 5.787058 
-0.463021 38.306629 27.625135 10.361300 0.009606 -3.191600 -10.214200 0.763119 0.584986 21.933800 0.927466 0.041982 -23.188999 7.575940 -11.370700 -2.155420 8.906630 -4.981040 2.000000 -2.000000 0.000000 -60.029598 -24.550699 167.707001 82.842300 -0.231884 0.135698 0.072530 -0.074085 -164.421997 -2.000000 2.000000 0.000000 -110.872002 161.514999 -3.674260 -85.928299 0.224557 0.136379 -0.054436 0.003446 -138.151993 -43.379658 -2.722694 21.410645 45.734531 1.349211 3.577757 -12.871509 18.569981 1.817676 -18.908241 5.132462 -2.170108 59.898136 -1.145258 -3.954340 -13.306891 20.384741 5.529573 
-0.465852 38.314873 27.890368 10.507800 0.009602 -3.113450 -10.223800 0.728090 0.600970 21.943501 0.927463 0.042140 -23.291800 7.511580 -11.247900 -2.194370 8.867220 -4.924310 2.000000 -2.000000 0.000000 -59.805599 -25.009399 167.806000 82.813004 -0.231954 0.135689 0.072581 -0.074182 -164.460999 -2.000000 2.000000 0.000000 -110.911003 161.544006 -3.713400 -85.967300 0.224464 0.136386 -0.054441 0.003692 -138.240005 -43.349960 -2.711504 21.422682 46.047558 1.353648 3.589404 -13.196769 18.471895 1.855875 -18.930336 5.071161 -2.233967 60.045837 -1.127829 -3.968107 -12.417594 20.362827 5.224319 
-0.468259 38.322098 28.146048 10.654300 0.019195 -3.004200 -10.233400 0.693063 0.616968 21.933800 0.917704 0.051511 -23.364901 7.432400 -11.100400 -2.223300 8.818250 -4.855220 2.000000 -2.000000 0.000000 -59.601101 -25.458401 167.895004 82.793503 -0.232000 0.135684 0.072594 -0.074206 -164.470993 -2.000000 2.000000 0.000000 -110.959999 161.572998 -3.781830 -85.986801 0.224417 0.136389 -0.054447 0.003938 -138.328003 -43.303360 -2.764714 21.360128 46.224907 1.331415 3.603757 -13.450348 18.402493 1.951822 -19.068419 4.984102 -2.328061 60.310631 -1.113000 -3.978380 -11.377522 20.311434 4.876939 
-0.470393 38.326355 28.391958 10.791000 0.038372 -2.883310 -10.243100 0.654610 0.623834 21.904499 0.917715 0.051042 -23.389900 7.383720 -10.965700 -2.222860 8.789120 -4.783710 2.000000 -2.000000 0.000000 -59.406502 -25.917200 167.973999 82.774002 -0.232046 0.135678 0.072606 -0.074231 -164.479996 -2.000000 2.000000 0.000000 -111.038002 161.591995 -3.860000 -86.006401 0.224371 0.136393 -0.054448 0.003993 -138.348007 -43.221771 -2.876088 21.215469 46.382580 1.315324 3.621423 -13.723770 18.416088 2.040773 -19.159666 4.887841 -2.376733 60.605080 -1.095375 -3.995790 -10.223930 20.280699 4.483803 
-0.472703 38.327511 28.630453 10.888700 0.067129 -2.809340 -10.262500 0.603787 0.652418 21.855600 0.907970 0.050037 -23.384300 7.353740 -10.860900 -2.212550 8.760140 -4.730240 2.000000 -2.000000 0.000000 -59.192299 -26.395500 168.063004 82.744698 -0.232116 0.135669 0.072670 -0.074352 -164.529007 -2.000000 2.000000 0.000000 -111.106003 161.630997 -3.938220 -86.045403 0.224278 0.136399 -0.054448 0.003965 -138.337997 -43.150925 -3.020457 21.026979 46.539322 1.307164 3.622548 -13.965879 18.510431 2.168582 -19.386446 4.785241 -2.363582 61.094326 -1.071363 -3.992769 -8.833203 20.202946 4.029323 
-0.474596 38.324028 28.861420 10.966800 0.095873 -2.764610 -10.262100 0.553665 0.710308 21.806801 0.868934 0.077701 -23.386700 7.312870 -10.773600 -2.202250 8.731160 -4.686550 2.000000 -2.000000 0.000000 -58.958599 -26.903099 168.190994 82.695801 -0.232231 0.135654 0.072784 -0.074570 -164.617004 -2.000000 2.000000 0.000000 -111.183998 161.699005 -4.036040 -86.113800 0.224115 0.136410 -0.054448 0.003965 -138.337997 -43.063080 -3.166211 20.778801 46.696434 1.299472 3.633676 -14.255746 18.681427 2.289719 -19.643448 4.650826 -2.271708 61.674381 -1.011465 -4.032546 -7.191232 20.161192 3.494904 
